<?xml version="1.0" encoding="UTF-8"?><svg id="Layer_1" xmlns="http://www.w3.org/2000/svg" width="79.32" height="65.73" viewBox="0 0 79.32 65.73"><defs><style>.cls-1{fill:#335939;stroke-width:0px;}</style></defs><path class="cls-1" d="M20.08,26.01c2.36-2.18,5.16-3.92,8.19-5,1.53-.54,3.1-.96,4.71-1.22.71-.12,1.43-.18,2.15-.22.47-.03.95-.04,1.42-.04.2,0,.41,0,.61,0,.5.06.54.03.11-.1l-1.15-1.49.06.34v-1.33c-.53,1.46-1.66,2.9-2.56,4.16-1,1.38-2.11,2.69-3.23,3.97-2.32,2.65-4.75,5.2-6.9,7.98s-4.38,6-5.23,9.46c-.51,2.05-.04,4.4,1.94,5.51,2.2,1.22,4.4-.09,6.11-1.47,3.4-2.73,6.32-6,9.69-8.77,2.74-2.25,6.14-4.32,9.75-4.62.84-.07.86-.1,1.27.57.29.49.74,1.33.42,1.89-.23.4-.92.63-1.32.8-.97.41-1.99.68-2.96,1.07-3.75,1.47-6.64,4.14-8.15,7.91-.87,2.17-1.23,4.72-.17,6.89.93,1.91,2.94,3.25,5.01,3.63,2.37.44,4.66-.18,6.76-1.27s4.01-2.45,5.18-4.43c1.64-2.78-2.68-5.3-4.32-2.52-.91,1.54-3.08,2.7-4.73,3.18-1.18.34-3.3.35-3.56-1.23s.84-3.52,1.75-4.67c1.25-1.59,2.93-2.45,4.8-3.11,2.28-.8,4.78-1.58,6.06-3.8s.74-4.98-.54-7.02c-1.43-2.27-3.46-3.13-6.1-2.82-2.45.29-4.75,1.04-6.95,2.15-4.33,2.19-7.82,5.67-11.3,8.98-.89.84-1.78,1.68-2.71,2.48-.4.35-.81.7-1.23,1.04-.17.13-.32.26-.5.38-.16.11-.33.21-.5.3l.2-.04c.38.94.71.58.92.33.25-.27.35-1.06.49-1.42.36-.87.8-1.71,1.27-2.52,4.01-6.99,10.73-11.95,14.83-18.9.71-1.21,1.65-2.6,1.35-4.06-.37-1.76-1.82-2.32-3.44-2.41-2.49-.14-5.08.18-7.51.74-5.05,1.15-9.71,3.68-13.51,7.19-2.37,2.19,1.18,5.72,3.54,3.54h0Z"/></svg>