<?xml version="1.0" encoding="UTF-8"?><svg id="Layer_1" xmlns="http://www.w3.org/2000/svg" width="21" height="21" viewBox="0 0 21 21"><defs><style>.cls-1{fill:#335939;stroke-width:0px;}</style></defs><path class="cls-1" d="M3.65.88l7.52,15.79L17.05.88h3.45v.2c-1.68,0-1.8,1.39-1.8,5.25v8.7c0,3.86.12,5.25,1.8,5.25v.2h-5.29v-.2c1.68,0,1.8-1.39,1.8-5.25V1.53c-2.12,5.66-4.09,11.05-6.5,17.52h-.18C7.26,12.46,5.49,8.66,2.51,2.27l-.02,8.4v2.49c0,5.7,1.61,7.11,3.29,7.11v.2H.5v-.2c1.68,0,1.8-1.39,1.8-5.25V6.33c0-3.86-.12-5.25-1.8-5.25v-.2h3.15Z"/></svg>