<?xml version="1.0" encoding="UTF-8"?><svg id="Layer_1" xmlns="http://www.w3.org/2000/svg" width="117" height="44" viewBox="0 0 117 44"><defs><style>.cls-1{fill:#fafbfb;stroke-width:0px;}</style></defs><path class="cls-1" d="M3.16.45l7.52,15.79L16.56.45h3.45v.2c-1.68,0-1.8,1.39-1.8,5.25v8.7c0,3.86.12,5.25,1.8,5.25v.2h-5.29v-.2c1.68,0,1.8-1.39,1.8-5.25V1.09c-2.12,5.66-4.09,11.05-6.5,17.52h-.18C6.77,12.03,5,8.22,2.03,1.84l-.02,8.41v2.49c0,5.7,1.61,7.11,3.29,7.11v.2H0v-.2c1.68,0,1.8-1.39,1.8-5.25V5.89C1.81,2.03,1.69.64,0,.64v-.2h3.15Z"/><path class="cls-1" d="M32.04,7.91c0-.37-.22-.53-.47-.53-.94,0-1.53,2.06-2.65,2.06-.55,0-.65-.53-.45-1.04,1.2-3.15,1.92-5.09,3.15-8.35h.2l6.27,16.56c.86,2.16,1.49,3.23,2.68,3.23v.2h-6.43v-.2c2.76,0,2.66-1.59,1.92-3.57l-2.43-6.41c.08.63.12,1.41.12,2.35,0,4.76-2.29,8.21-6.19,8.21-2.27,0-3.57-1.78-3.57-3.82,0-4.82,7.84-6.66,7.84-8.7ZM28.95,19.49c3.27,0,4.82-4.02,4.82-7.23,0-1.45-.06-2.53-.41-3.68l-2.37-6.25-2.25,6c-.25.69-.1.92.22.92.9,0,1.63-2.06,2.66-2.06.37,0,.65.25.65.76,0,2.63-6.39,3.45-6.39,8.29,0,1.84,1.16,3.25,3.08,3.25Z"/><path class="cls-1" d="M54.38.45v2.65h-.2c0-.06.02,0,.02-.08,0-1.31-2.47-2.37-5.84-2.37v13.95c0,3.86-.04,5.25,1.65,5.25v.2h-5.11v-.2c1.68,0,1.8-1.39,1.8-5.25V.64c-3.37,0-5.84,1.06-5.84,2.37,0,.08.02.02.02.08h-.2V.45h13.69Z"/><path class="cls-1" d="M57.42.45h5.29v.2c-1.69,0-1.8,1.39-1.8,5.25v8.7c0,3.86.12,5.25,1.8,5.25v.2h-5.29v-.2c1.68,0,1.8-1.39,1.8-5.25V5.89c0-3.86-.12-5.25-1.8-5.25v-.2Z"/><path class="cls-1" d="M71.04.45v.2c-1.68,0-1.8,1.39-1.8,5.25v13.95h2.49c1.86,0,7.84-.22,7.84-3.04h.2v3.23h-14.01v-.2c1.69,0,1.8-1.39,1.8-5.25V5.89c0-3.86-.12-5.25-1.8-5.25v-.2h5.29Z"/><path class="cls-1" d="M82.8,19.84c1.68,0,1.8-1.39,1.8-5.25V5.89c0-3.86-.12-5.25-1.8-5.25v-.2h1.57c2.06,0,3.74-.39,5.47-.39,6.03,0,8.89,4.82,8.89,10.19s-2.86,10.19-8.89,10.19c-1.72,0-3.41-.39-5.47-.39h-1.57v-.2ZM86.27,19.61c1.14.35,2.27.55,3.55.55,4.84,0,7.23-4.56,7.23-9.91S94.65.33,89.81.33c-1.27,0-2.41.2-3.55.55v18.73Z"/><path class="cls-1" d="M102.36.45h14.03v2.65h-.2v-.08c0-1.31-2.59-2.37-7.09-2.37h-3.25v8.42c.59-.57,1.37-.9,2.27-.9,1.94,0,3.02,1.21,4.74,1.21.74,0,1.45-.43,1.45-1.12h.2c0,1.16-.96,2.16-2.51,2.16-2.39,0-3.39-1.69-4.78-1.72-.57-.02-1.06.27-1.37.69v10.46h2.51c1.86,0,7.84-.22,7.84-3.04h.2v3.23h-14.03v-.2c1.69,0,1.8-1.39,1.8-5.25V5.89c0-3.86-.12-5.25-1.8-5.25v-.2Z"/><path class="cls-1" d="M2.28,23.96c1.72,0,4.15-.39,5.88-.39,2.76,0,5.29.86,5.29,3.6,0,5.11-8.86,4.72-8.86,6.9,0,.45.33.51.57.51.82,0,2.19-1.2,4.08-1.2,3,0,5.45,1.92,5.45,4.9,0,3.39-2.33,5.66-6.5,5.66-2.27,0-3.66-.39-5.82-.39H0v-.2c1.68,0,1.8-1.39,1.8-5.25v-8.7c0-3.86-.12-5.25-1.8-5.25v-.2h2.27ZM3.48,43.04c1.2.43,2.14.63,3.59.63,3.64,0,5.94-2,5.94-5.25,0-2.35-1.33-4.82-3.78-4.82-1.65,0-2.98,1.18-4.13,1.18-.35,0-.69-.2-.69-.67,0-2.57,7.37-2.94,7.37-6.9,0-2.43-2.35-3.37-4.74-3.37-1.27,0-2.41.2-3.55.55v18.65Z"/><path class="cls-1" d="M15.12,43.36c1.68,0,1.8-1.39,1.8-5.25v-8.7c0-3.86-.12-5.25-1.8-5.25v-.2h2.35c2.15,0,3.55-.39,5.82-.39,4.17,0,6.5,2.31,6.5,5.51,0,2.68-2.19,5.11-5.6,5.11-1.84,0-3.1-1.25-3.92-1.25-.24,0-.57.06-.57.51,0,1.27,4.13,1.55,5.72,4.02,1.55,2.41,3.37,5.9,5.6,5.9v.2h-3c-.9,0-1.45-1.23-4.55-5.88-1.9-2.86-3.98-2.94-3.98-4.27,0-.47.33-.67.69-.67,1.16,0,2.06,1.12,3.88,1.12,2.45,0,4.04-2.41,4.04-4.76,0-3.25-2.29-5.25-5.94-5.25-1.45,0-2.39.2-3.59.63v13.64c0,3.86.12,5.25,1.8,5.25v.2h-5.27v-.2Z"/><path class="cls-1" d="M30.87,23.96h14.03v2.65h-.2v-.08c0-1.31-2.59-2.37-7.09-2.37h-3.25v8.42c.59-.57,1.37-.9,2.27-.9,1.94,0,3.02,1.21,4.74,1.21.74,0,1.45-.43,1.45-1.12h.2c0,1.16-.96,2.16-2.51,2.16-2.39,0-3.39-1.69-4.78-1.72-.57-.02-1.06.27-1.37.69v10.46h2.51c1.86,0,7.84-.22,7.84-3.04h.2v3.23h-14.03v-.2c1.68,0,1.8-1.39,1.8-5.25v-8.7c0-3.86-.12-5.25-1.8-5.25v-.2Z"/><path class="cls-1" d="M52.35,23.57c2.41,0,4.08.39,5.58.9v2.63h-.2s-1.2-3.29-5.39-3.29c-3.64,0-5.64,2.21-5.64,4.39,0,5.37,12.38,3.47,12.38,10.33,0,2.72-2.82,5.43-7.35,5.43-2.59,0-4.88-1.31-6.33-2.39v-2.62h.2s2.57,4.66,7.23,4.66c2.86,0,5.11-2.1,5.11-4.27,0-5.9-12.62-4.23-12.62-10.66,0-2.72,2.49-5.09,7.01-5.09Z"/><path class="cls-1" d="M60.11,33.76c0-5.88,3.84-10.19,8.72-10.19,4.49,0,6.01,2.33,6.01,4.11,0,4.08-5.54,5.52-5.54,7.86,0,.61.2.94.59,1.27-1.06.24-1.7-.92-1.7-1.82,0-3.45,5.51-4.6,5.51-7.46,0-2.33-1.59-3.72-4.86-3.72-4.06,0-6.96,4.23-6.96,9.95s3.17,9.95,6.96,9.95c4.35,0,5.58-3.29,5.58-3.29h.22v2.63c-1.57.51-3.29.9-5.8.9-4.88,0-8.72-4.31-8.72-10.19Z"/><path class="cls-1" d="M74.49,23.96h5.29v.2c-1.68,0-1.8,1.39-1.8,5.25v8.7c0,3.86.12,5.25,1.8,5.25v.2h-5.29v-.2c1.69,0,1.8-1.39,1.8-5.25v-8.7c0-3.86-.12-5.25-1.8-5.25v-.2Z"/><path class="cls-1" d="M87.46,31.43c0-.37-.22-.53-.47-.53-.94,0-1.53,2.06-2.65,2.06-.55,0-.65-.53-.45-1.04,1.2-3.15,1.92-5.09,3.15-8.35h.2l6.27,16.56c.86,2.16,1.49,3.23,2.68,3.23v.2h-6.43v-.2c2.76,0,2.67-1.59,1.92-3.57l-2.43-6.41c.08.63.12,1.41.12,2.35,0,4.76-2.29,8.21-6.19,8.21-2.27,0-3.57-1.78-3.57-3.82,0-4.82,7.84-6.66,7.84-8.7ZM84.37,43.01c3.27,0,4.82-4.02,4.82-7.23,0-1.45-.06-2.53-.41-3.68l-2.37-6.25-2.25,6c-.25.69-.1.92.22.92.9,0,1.63-2.06,2.66-2.06.37,0,.65.25.65.76,0,2.63-6.39,3.45-6.39,8.29,0,1.84,1.16,3.25,3.08,3.25Z"/><path class="cls-1" d="M98.89,23.96l10.97,16.73v-8.54c0-5.7-1.61-7.99-3.29-7.99v-.2h5.29v.2c-1.68,0-1.8,1.39-1.8,5.25v14.54h-.2l-12.4-18.89v10.31c0,5.7,1.61,7.99,3.29,7.99v.2h-5.29v-.2c1.68,0,1.8-1.39,1.8-5.25v-8.7c0-3.86-.12-5.25-1.8-5.25v-.2h3.43Z"/><path class="cls-1" d="M111.7,23.96h5.29v.2c-1.69,0-1.8,1.39-1.8,5.25v8.7c0,3.86.12,5.25,1.8,5.25v.2h-5.29v-.2c1.68,0,1.8-1.39,1.8-5.25v-8.7c0-3.86-.12-5.25-1.8-5.25v-.2Z"/></svg>