<?xml version="1.0" encoding="UTF-8"?><svg id="Layer_1" xmlns="http://www.w3.org/2000/svg" width="122mm" height="11mm" viewBox="0 0 345.83 31.18"><defs><style>.cls-1{fill:#8fab8b;stroke-width:0px;}</style></defs><path class="cls-1" d="M342.46,31.1c-15.1,0-22.65-6.95-29.95-13.67-6.9-6.35-13.41-12.35-26.56-12.35s-19.67,6-26.56,12.35c-7.3,6.72-14.85,13.67-29.95,13.67s-22.65-6.95-29.95-13.67c-6.9-6.35-13.41-12.35-26.56-12.35s-19.67,6-26.56,12.35c-7.3,6.72-14.85,13.67-29.95,13.67s-22.65-6.95-29.95-13.67c-6.9-6.35-13.41-12.35-26.57-12.35s-19.67,6-26.57,12.35c-7.3,6.72-14.85,13.67-29.95,13.67-1.38,0-2.5-1.12-2.5-2.5s1.12-2.5,2.5-2.5c13.15,0,19.67-6,26.57-12.35C37.23,7.03,44.78.08,59.88.08s22.65,6.95,29.95,13.67c6.9,6.35,13.41,12.35,26.57,12.35s19.67-6,26.56-12.35C150.27,7.03,157.82.08,172.92.08s22.65,6.95,29.95,13.67c6.9,6.35,13.41,12.35,26.57,12.35s19.67-6,26.56-12.35c7.3-6.72,14.85-13.67,29.95-13.67s22.65,6.95,29.95,13.67c6.9,6.35,13.41,12.35,26.56,12.35,1.38,0,2.5,1.12,2.5,2.5s-1.12,2.5-2.5,2.5Z"/></svg>